<svg xmlns="http://www.w3.org/2000/svg" width="512" height="512" viewBox="0 0 512 512" version="1.1">
	<path d="M 445.804 151.872 C 432.590 156.229, 420.171 169.546, 409.783 190.500 C 407.874 194.350, 401.862 208.690, 396.422 222.367 L 386.531 247.234 375.516 246.764 C 368.224 246.453, 363.061 245.700, 360.242 244.536 C 354.428 242.134, 347.412 234.126, 345.510 227.721 C 343.486 220.907, 343.606 217.106, 346.077 209.772 C 351.118 194.807, 362.473 184.551, 376.296 182.478 C 381.762 181.659, 383.873 180.473, 382.433 179.033 C 381.700 178.300, 379.024 178.587, 373.564 179.984 C 354.617 184.829, 340.127 195.683, 336.555 207.705 C 330.050 229.592, 347.640 248.676, 376.981 251.567 L 384.030 252.261 378.049 263.648 C 374.760 269.911, 370.243 278.107, 368.012 281.863 L 363.956 288.690 358.228 287.747 C 355.078 287.228, 346.875 287.057, 340 287.368 C 320.805 288.234, 305.856 292.780, 296.209 300.685 C 289.998 305.774, 288.008 309.440, 288.004 315.800 C 287.999 322.347, 289.910 326.198, 294.988 329.876 C 300.491 333.862, 306.652 335.350, 315.351 334.791 C 329.179 333.904, 346.089 323.337, 358.536 307.807 C 361.757 303.788, 364.687 300.139, 365.048 299.699 C 365.822 298.751, 389.671 303.854, 399 306.963 C 412.246 311.377, 427.720 319.591, 433.905 325.491 C 444.008 335.127, 448.538 350.279, 444.522 361 C 441.051 370.265, 441.290 371.192, 446.533 368.803 C 452.713 365.987, 454.720 354.704, 451.105 343.091 C 446.305 327.666, 433.446 315.610, 409.286 303.882 C 399.773 299.264, 376.797 291, 373.471 291 C 371.398 291, 371.634 289.540, 374.422 285.124 C 375.753 283.014, 380.252 274.482, 384.418 266.164 C 390.990 253.042, 392.357 250.963, 394.746 250.461 C 412.227 246.788, 429.378 237.345, 444.094 223.291 C 453.886 213.939, 459.557 206.221, 464.935 194.928 C 469.917 184.465, 472.004 176.506, 471.985 168.040 C 471.967 160.162, 470.739 157.466, 465.485 153.773 C 460.152 150.025, 453.388 149.372, 445.804 151.872 M 114.500 159.647 C 90.289 164.781, 62.320 182.829, 46.937 203.244 C 27.794 228.649, 23.275 253.726, 34.160 274.149 C 42.660 290.096, 61.236 297.675, 78 292.035 C 100.905 284.329, 119.037 262.455, 118.984 242.593 C 118.950 230.274, 111.416 223.340, 99.206 224.391 C 92.833 224.940, 87.373 226.818, 87.777 228.322 C 87.898 228.775, 91.411 229.225, 95.582 229.322 C 102.748 229.490, 103.324 229.676, 106.013 232.687 C 112.986 240.495, 109.690 257.705, 98.352 272.691 C 90.744 282.745, 82.167 287.758, 70.948 288.704 C 58.358 289.766, 49.106 285.098, 43.503 274.856 C 35.957 261.062, 40.844 233.640, 54.547 212.876 C 60.488 203.873, 79.314 184.783, 87.500 179.459 C 112.177 163.412, 136.813 158.771, 150.329 167.624 C 162.666 175.706, 160.156 198.011, 141.887 242.648 C 114.915 308.550, 111.274 330.975, 126.718 336.072 C 139.562 340.311, 162.599 320.357, 186.541 284.256 C 189.183 280.272, 191.501 277.168, 191.692 277.359 C 191.883 277.550, 191.309 280.810, 190.417 284.603 C 188.622 292.231, 188.955 304.652, 191.133 311.326 C 191.820 313.431, 194.127 317.135, 196.260 319.558 C 207.107 331.881, 231.077 328.482, 255.651 311.135 C 278.142 295.258, 291.210 273.901, 295.163 246.561 C 298.173 225.745, 289.898 205.524, 275.500 198.510 C 269.914 195.788, 256.473 195.187, 252.074 197.462 C 247.746 199.700, 248.581 201.642, 253.594 201 C 255.743 200.725, 260.518 200.514, 264.207 200.530 C 270.015 200.557, 271.490 200.964, 275.207 203.564 C 277.830 205.399, 280.659 208.695, 282.477 212.034 C 285.173 216.982, 285.490 218.554, 285.831 228.621 C 286.251 241.027, 284.707 249.065, 279.129 263.500 C 274.520 275.429, 269.442 283.359, 260.099 293.215 C 234.462 320.263, 206.917 330.036, 199.895 314.576 C 197.449 309.190, 197.460 299.431, 199.924 289.797 C 200.982 285.660, 205.688 272.831, 210.382 261.289 C 218.735 240.752, 220.089 235.802, 218.601 231.250 C 217.415 227.623, 213.080 228.290, 208.846 232.750 C 204.236 237.606, 201.789 241.334, 187.018 266 C 168.921 296.220, 159.851 309.132, 149 320.119 C 137.756 331.505, 132.978 333.924, 129.705 329.887 C 128.116 327.927, 127.873 326.512, 128.346 321.975 C 129.597 309.979, 140.591 277.625, 155 243.539 C 166.428 216.504, 169.645 203.827, 168.745 189.389 C 167.676 172.258, 159.519 163.254, 141.742 159.582 C 132.421 157.656, 123.791 157.677, 114.500 159.647 M 453.764 160.996 C 441.169 164.785, 425.444 185.257, 406.062 223.098 C 399.978 234.977, 395 244.965, 395 245.294 C 395 246.461, 405.617 242.763, 413.500 238.849 C 436.803 227.282, 456.384 204.460, 462.065 182.244 C 465.172 170.097, 464.292 161, 460.010 161 C 459.545 161, 458.564 160.814, 457.832 160.587 C 457.099 160.359, 455.269 160.544, 453.764 160.996 M 319.421 298.383 C 309.721 300.958, 300.970 304.879, 297.155 308.360 C 292.468 312.637, 290.744 318.785, 293.033 323.062 C 294.345 325.514, 300.666 328.763, 305.685 329.566 C 315.304 331.104, 330.649 325.244, 341.722 315.804 C 350.223 308.557, 357.674 299.274, 356.186 297.786 C 355.499 297.099, 349.860 296.523, 341.778 296.315 C 330.233 296.017, 327.315 296.287, 319.421 298.383" stroke="none" fill="black" fill-rule="evenodd"/>
</svg>